<?xml version="1.0" encoding="UTF-8" standalone="no"?>
<!-- Created with Inkscape (http://www.inkscape.org/) -->

<svg
   width="105.6282mm"
   height="86.347649mm"
   viewBox="0 0 105.6282 86.347649"
   version="1.1"
   id="svg5"
   xml:space="preserve"
   sodipodi:docname="dispute-active-icon.svg"
   inkscape:version="1.2.2 (b0a8486541, 2022-12-01)"
   xmlns:inkscape="http://www.inkscape.org/namespaces/inkscape"
   xmlns:sodipodi="http://sodipodi.sourceforge.net/DTD/sodipodi-0.dtd"
   xmlns="http://www.w3.org/2000/svg"
   xmlns:svg="http://www.w3.org/2000/svg"><sodipodi:namedview
     id="namedview1137"
     pagecolor="#ffffff"
     bordercolor="#000000"
     borderopacity="0.25"
     inkscape:showpageshadow="2"
     inkscape:pageopacity="0.0"
     inkscape:pagecheckerboard="0"
     inkscape:deskcolor="#d1d1d1"
     inkscape:document-units="mm"
     showgrid="false"
     inkscape:zoom="0.75366162"
     inkscape:cx="228.21913"
     inkscape:cy="248.12196"
     inkscape:window-width="1920"
     inkscape:window-height="1048"
     inkscape:window-x="0"
     inkscape:window-y="0"
     inkscape:window-maximized="1"
     inkscape:current-layer="svg5" /><defs
     id="defs2" /><g
     id="layer1"
     transform="translate(-44.457057,-82.832301)"><path
       style="fill:#000000;stroke-width:1.50898"
       d="m 94.540477,166.53925 c 0.721109,-3.74444 10.776153,-3.74444 11.497263,0 0.41832,2.17216 -0.60166,2.6407 -5.74863,2.6407 -5.146977,0 -6.166957,-0.46854 -5.748633,-2.6407 z m 15.810423,-0.6212 c -0.46915,-1.79405 -0.18494,-4.51021 0.63159,-6.0359 0.98321,-1.83713 0.96143,-3.75151 -0.0644,-5.66841 -1.27748,-2.387 -0.6935,-12.19532 0.72611,-12.19532 0.22822,0 2.79159,2.37663 5.69637,5.28141 5.04293,5.04293 13.12807,7.36625 13.12807,3.77244 0,-0.82994 -1.34984,-1.50897 -2.99964,-1.50897 -1.64982,0 -5.45603,-2.60833 -8.45826,-5.79628 -4.12818,-4.38357 -6.3393,-5.62791 -9.07213,-5.1055 -2.96397,0.5666 -3.61355,1.60856 -3.61355,5.79628 0,3.53223 -0.69749,5.1055 -2.26347,5.1055 -1.24489,0 -2.26346,-0.93368 -2.26346,-2.07485 0,-1.14115 -0.40344,-4.09205 -0.89653,-6.55752 -0.79211,-3.96055 -0.25478,-4.86133 4.61318,-7.7335 4.93793,-2.91345 6.24463,-3.07226 12.59109,-1.53035 3.89475,0.94625 9.94249,3.49264 13.43941,5.65865 l 6.35804,3.93821 0.0551,12.44903 c 0.0325,7.33011 -0.56537,12.44904 -1.45387,12.44904 -0.82994,0 -1.50897,-1.01856 -1.50897,-2.26347 0,-3.09396 -0.76597,-2.86928 -5.14424,1.50898 -3.00342,3.00342 -5.28856,3.77243 -11.2099,3.77243 -6.35383,0 -7.56175,-0.47526 -8.29047,-3.2619 z m 32.18948,-12.58232 v -15.84424 h 3.77244 3.77244 v 15.84424 15.84422 h -3.77244 -3.77244 z m -73.939735,13.0685 c 0,-1.8915 7.526406,-4.95866 9.37078,-3.81878 0.944961,0.58402 0.126617,1.80526 -1.999294,2.98364 -4.150307,2.30051 -7.371486,2.66544 -7.371486,0.83514 z m 23.3891,-7.78709 c -1.83514,-2.96932 1.051129,-4.52693 8.388425,-4.52693 6.44982,0 7.4558,0.4072 7.4558,3.01795 0,2.61075 -1.00598,3.01795 -7.4558,3.01795 -4.100711,0 -7.875493,-0.67903 -8.388425,-1.50897 z M 65.582697,149.5633 c 0,-0.82994 2.037115,-1.50898 4.526922,-1.50898 2.489808,0 4.52692,0.67904 4.52692,1.50898 0,0.82993 -2.037112,1.50897 -4.52692,1.50897 -2.489807,0 -4.526922,-0.67904 -4.526922,-1.50897 z m 26.0298,0.5096 c -2.989834,-1.20643 -2.193541,-4.73561 1.320128,-5.85081 3.236462,-1.02721 5.777536,1.13846 5.824396,4.96396 0.02303,1.88212 -3.572022,2.32838 -7.144524,0.88685 z m -1.886216,-12.58141 c 0,-2.1377 1.005983,-3.01795 3.449087,-3.01795 2.443106,0 3.449089,0.88025 3.449089,3.01795 0,2.13772 -1.005983,3.01795 -3.449089,3.01795 -2.443104,0 -3.449087,-0.88023 -3.449087,-3.01795 z M 71.995838,135.6498 c -3.427254,-1.6529 -4.613149,-4.1942 -1.95722,-4.1942 2.928712,0 9.003439,3.50258 8.233991,4.74758 -0.989906,1.60169 -1.991372,1.5134 -6.276771,-0.55338 z M 44.457057,105.14878 V 89.20432 h 4.579712 4.57971 l -0.430031,15.46699 -0.430032,15.46699 -4.149679,0.47746 -4.14968,0.47748 z m 24.619476,14.2245 c -1.813102,-0.73052 -4.043866,-2.7246 -4.957258,-4.43127 -2.198139,-4.10728 -5.071916,-4.0359 -3.761325,0.0935 0.733312,2.31045 0.447799,3.00876 -1.030043,2.51924 -1.441068,-0.47733 -2.172547,-4.23021 -2.478143,-12.71418 l -0.433575,-12.036944 7.651272,-4.957855 c 8.209407,-5.319517 13.967034,-6.026185 31.694719,-3.890105 9.85163,1.187069 11.45526,2.351698 8.89128,6.457278 -1.55378,2.488006 -1.55263,3.515149 0.006,5.39321 2.18524,2.633069 1.04633,5.470046 -2.19598,5.470046 -2.489924,0 -2.910594,2.38485 -0.66543,3.77244 2.33134,1.44085 1.78269,5.2814 -0.75449,5.2814 -2.669844,0 -3.067384,4.00746 -0.48301,4.86892 0.99404,0.33135 1.34822,1.71988 0.80185,3.14369 -0.8254,2.15097 -3.171161,2.53524 -14.983982,2.45457 -7.702956,-0.0526 -15.488817,-0.69335 -17.301918,-1.42386 z m 51.916197,-0.87603 c -5.6672,-3.07339 -3.72469,-5.81054 2.01663,-2.84159 2.4427,1.26317 4.44128,2.95827 4.44128,3.76689 0,1.98492 -1.48354,1.77235 -6.45791,-0.9253 z m 0.42202,-16.46665 c 0,-1.50897 1.50896,-2.263456 4.52691,-2.263456 3.01796,0 4.52693,0.754486 4.52693,2.263456 0,1.50898 -1.50897,2.26346 -4.52693,2.26346 -3.01795,0 -4.52691,-0.75448 -4.52691,-2.26346 z M 117.6786,89.26305 c -0.4892,-0.791543 1.13614,-2.486649 3.61188,-3.766903 5.26216,-2.72117 6.16016,-2.846174 6.16016,-0.857494 0,2.201218 -8.71945,6.327513 -9.77204,4.624397 z"
       id="path1582" /></g></svg>
